<?xml version="1.0" encoding="UTF-8" standalone="no"?>
<!-- Created with Inkscape (http://www.inkscape.org/) -->

<svg
   width="390"
   height="240"
   viewBox="0 0 103.1875 63.5"
   version="1.1"
   id="svg1436"
   inkscape:export-filename="/home/abdulrazak/Documents/devs/orangeMainTextBox.png"
   inkscape:export-xdpi="96"
   inkscape:export-ydpi="96"
   inkscape:version="1.1 (1:1.1+202105261517+ce6663b3b7)"
   sodipodi:docname="BTN_base.svg"
   xmlns:inkscape="http://www.inkscape.org/namespaces/inkscape"
   xmlns:sodipodi="http://sodipodi.sourceforge.net/DTD/sodipodi-0.dtd"
   xmlns="http://www.w3.org/2000/svg"
   xmlns:svg="http://www.w3.org/2000/svg">
  <sodipodi:namedview
     id="namedview1438"
     pagecolor="#ffffff"
     bordercolor="#666666"
     borderopacity="1.0"
     inkscape:pageshadow="2"
     inkscape:pageopacity="0.0"
     inkscape:pagecheckerboard="0"
     inkscape:document-units="mm"
     showgrid="false"
     units="px"
     height="240px"
     inkscape:zoom="1.474359"
     inkscape:cx="176.0087"
     inkscape:cy="104.7913"
     inkscape:window-width="1366"
     inkscape:window-height="705"
     inkscape:window-x="0"
     inkscape:window-y="39"
     inkscape:window-maximized="1"
     inkscape:current-layer="layer1" />
  <defs
     id="defs1433" />
  <g
     inkscape:label="Layer 1"
     inkscape:groupmode="layer"
     id="layer1">
    <path
       style="color:#000000;fill:#fff380;fill-opacity:1;stroke-width:0.391849;-inkscape-stroke:none"
       d="m 8.0212067,4.3119183 h 6.2323263 6.232327 6.232326 6.232326 6.232327 6.232327 c 6.9899,0 6.232326,0.353163 6.232326,6.8174607 v 6.81746 6.817461 6.817461 6.81746 6.817461 6.81746 c 0,6.975618 0.372757,6.817461 -6.232326,6.817461 H 39.182839 32.950512 26.718186 20.48586 14.253533 c 0,0 -4.154884,0 -6.2323263,0 -6.9899007,0 -6.2323267,-0.353163 -6.2323267,-6.817461 0,-2.272487 0,-6.81746 0,-6.81746 v -6.817461 -6.81746 -6.817461 -6.817461 -6.81746 c 0,-6.975618 -0.372757,-6.8174607 6.2323267,-6.8174607 z"
       id="rect1467"
       sodipodi:nodetypes="scccccsscccccsscccccsscccccss"
       inkscape:export-filename="/home/abdulrazak/Documents/devs/orangeMainBTN.png"
       inkscape:export-xdpi="96"
       inkscape:export-ydpi="96" />
    <path
       style="color:#000000;fill:#ffffcc;fill-opacity:1;stroke-width:0.391849;-inkscape-stroke:none"
       d="m 58.9971,4.9144514 h 6.232326 6.232327 6.232326 6.232326 6.232327 6.232327 c 6.989901,0 6.232321,0.353163 6.232321,6.8174616 v 6.81746 6.817461 6.817461 6.81746 6.817461 6.81746 c 0,6.975618 0.37276,6.817461 -6.232321,6.817461 h -6.232327 -6.232327 -6.232326 -6.232326 -6.232327 c 0,0 -4.154884,0 -6.232326,0 -6.989901,0 -6.232327,-0.353163 -6.232327,-6.817461 0,-2.272487 0,-6.81746 0,-6.81746 v -6.817461 -6.81746 -6.817461 -6.817461 -6.81746 c 0,-6.9756189 -0.372757,-6.8174616 6.232327,-6.8174616 z"
       id="path4055"
       sodipodi:nodetypes="scccccsscccccsscccccsscccccss"
       inkscape:export-filename="/home/abdulrazak/Documents/devs/orangeThemeBTN.png"
       inkscape:export-xdpi="96"
       inkscape:export-ydpi="96" />
  </g>
</svg>
